<svg xmlns="http://www.w3.org/2000/svg" width="139" height="141" viewBox="0 0 139 141" version="1.1"><path d="M 55.004 17.496 L 39.524 33 55.004 48.504 L 70.484 64.008 85.988 48.504 L 101.492 33 85.988 17.496 L 70.484 1.992 55.004 17.496 M 18.004 54.496 L 2.524 70 18.004 85.504 L 33.484 101.008 48.988 85.504 L 64.492 70 48.988 54.496 L 33.484 38.992 18.004 54.496 M 92.004 54.496 L 76.524 70 92.004 85.504 L 107.484 101.008 122.988 85.504 L 138.492 70 122.988 54.496 L 107.484 38.992 92.004 54.496 M 55.004 91.496 L 39.524 107 55.004 122.504 L 70.484 138.008 85.988 122.504 L 101.492 107 85.988 91.496 L 70.484 75.992 55.004 91.496" stroke="none" fill="#7484ec" fill-rule="evenodd"/></svg>